# xmcd
#
# Track frame offsets:
# 150
# 14236
# 30434
# 47494
# 64540
# 79649
# 92160
# 104384
# 116674
# 135361
# 150900
# 163180
# 179177
# 195403
#
# Disc length: 2800 seconds
#
#
# Revision: 0
# Processed by: cddbd v1.5.2PL0 Copyright (c) Steve Scherf et al.
# Submitted via: Nero 7, 2, 3, 2 
#
DISCID=ae0aee0e
DTITLE=jl dawson band - rocking good way
DYEAR=2005
DGENRE=Country
TTITLE0=a rockin good way
TTITLE1=hicktown
TTITLE2=suds in the bucket
TTITLE3=it's your love
TTITLE4=here fot the party
TTITLE5=hey bartender
TTITLE6=i try to think about elvis
TTITLE7=burning love
TTITLE8=she believes in me
TTITLE9=redneck woman
TTITLE10=the fever
TTITLE11=al jack up
TTITLE12=midnight in montgomery
TTITLE13=my give a damn busted
EXTD=
EXTT0=
EXTT1=
EXTT2=
EXTT3=
EXTT4=
EXTT5=
EXTT6=
EXTT7=
EXTT8=
EXTT9=
EXTT10=
EXTT11=
EXTT12=
EXTT13=
PLAYORDER=
